<svg width="131" height="193" viewBox="0 0 131 193" fill="none" xmlns="http://www.w3.org/2000/svg">
<mask id="mask0_801_517" style="mask-type:luminance" maskUnits="userSpaceOnUse" x="0" y="0" width="131" height="193">
<path d="M130.267 0H0V192.784H130.267V0Z" fill="white"/>
</mask>
<g mask="url(#mask0_801_517)">
<path d="M64.787 59.509C71.7629 59.4496 78.6881 60.6981 85.204 63.19C80.412 39.134 73.021 24.421 64.747 24.432H64.738C56.466 24.448 49.117 39.176 44.386 63.238C50.8934 60.7318 57.8138 59.4669 64.787 59.509Z" fill="url(#paint0_linear_801_517)"/>
<path d="M65.272 173.212L54.744 173.226C57.4 189.707 61.155 192.79 65.306 192.784C69.457 192.778 73.186 189.684 75.806 173.199L65.272 173.212Z" fill="url(#paint1_linear_801_517)"/>
<path d="M90.87 126.341C90.439 114.028 89.587 101.088 88.19 87.59C87.474 80.672 86.6557 73.9386 85.735 67.3899C72.2612 62.185 57.3287 62.2025 43.867 67.4389C42.969 74.0503 42.169 80.8469 41.467 87.8289C40.107 101.429 39.287 114.471 38.883 126.887C27.253 135.487 19.223 151.799 19.25 173.198L38.577 173.173C42.113 173.173 44.218 172.273 44.218 168.666L44.206 168.598L64.928 168.572L86.328 168.545C86.328 172.364 88.35 173.111 91.901 173.106L111.301 173.082C111.271 151.274 102.883 134.682 90.87 126.341ZM64.804 73.6819C66.3934 73.6798 67.9478 74.149 69.2705 75.0302C70.5933 75.9114 71.625 77.1652 72.2352 78.6328C72.8454 80.1004 73.0067 81.716 72.6987 83.2753C72.3907 84.8345 71.6272 86.2675 70.5047 87.3928C69.3823 88.5182 67.9514 89.2854 66.3929 89.5975C64.8344 89.9096 63.2184 89.7525 61.7492 89.1461C60.28 88.5398 59.0237 87.5113 58.139 86.1909C57.2543 84.8705 56.781 83.3174 56.779 81.728C56.7766 79.5969 57.6207 77.5522 59.1256 76.0434C60.6305 74.5345 62.673 73.6851 64.804 73.6819ZM64.838 99.861C66.4272 99.859 67.9813 100.328 69.3037 101.21C70.6262 102.091 71.6576 103.344 72.2676 104.812C72.8775 106.279 73.0387 107.895 72.7306 109.454C72.4225 111.013 71.659 112.445 70.5367 113.57C69.4144 114.696 67.9836 115.463 66.4254 115.775C64.8671 116.087 63.2513 115.929 61.7824 115.323C60.3134 114.717 59.0572 113.689 58.1727 112.368C57.2882 111.048 56.815 109.495 56.813 107.906C56.8106 105.775 57.6547 103.73 59.1596 102.222C60.6646 100.713 62.7071 99.8639 64.838 99.861ZM64.892 142.111C63.3028 142.113 61.7488 141.644 60.4263 140.762C59.1039 139.881 58.0724 138.628 57.4625 137.16C56.8525 135.693 56.6914 134.077 56.9995 132.518C57.3076 130.959 58.0711 129.527 59.1934 128.401C60.3157 127.276 61.7464 126.509 63.3047 126.197C64.8629 125.885 66.4787 126.042 67.9476 126.649C69.4166 127.255 70.6728 128.283 71.5573 129.604C72.4419 130.924 72.9151 132.477 72.917 134.066C72.9183 135.121 72.7118 136.166 72.3092 137.142C71.9065 138.117 71.3157 139.004 70.5704 139.751C69.8251 140.498 68.94 141.091 67.9655 141.496C66.991 141.901 65.9463 142.111 64.891 142.112L64.892 142.111Z" fill="url(#paint2_linear_801_517)"/>
<path d="M64.813 77.033C63.5824 77.0525 62.409 77.5554 61.5462 78.433C60.6834 79.3107 60.2006 80.4926 60.2022 81.7234C60.2038 82.9541 60.6896 84.1348 61.5546 85.0103C62.4196 85.8857 63.5944 86.3856 64.825 86.402C66.0674 86.4004 67.2583 85.9053 68.1357 85.0257C69.0131 84.146 69.5051 82.9539 69.5035 81.7115C69.5019 80.4691 69.0068 79.2781 68.1272 78.4008C67.2476 77.5234 66.0554 77.0314 64.813 77.033Z" fill="url(#paint3_linear_801_517)"/>
<path d="M64.847 103.212H64.838C63.6074 103.231 62.4339 103.734 61.5711 104.612C60.7084 105.49 60.2256 106.672 60.2272 107.902C60.2288 109.133 60.7145 110.314 61.5796 111.189C62.4446 112.065 63.6194 112.565 64.85 112.581C66.0925 112.58 67.2836 112.085 68.1613 111.205C69.039 110.326 69.5313 109.133 69.53 107.891C69.5286 106.648 69.0338 105.457 68.1542 104.58C67.2747 103.702 66.0825 103.21 64.84 103.211L64.847 103.212Z" fill="url(#paint4_linear_801_517)"/>
<path d="M64.875 129.392C63.6444 129.411 62.4709 129.914 61.6082 130.792C60.7454 131.67 60.2626 132.852 60.2642 134.082C60.2657 135.313 60.7516 136.494 61.6166 137.369C62.4816 138.245 63.6564 138.745 64.887 138.761C66.1294 138.759 67.3203 138.265 68.1978 137.385C69.0753 136.505 69.5674 135.313 69.566 134.071C69.5645 132.829 69.0696 131.638 68.19 130.76C67.3105 129.883 66.1174 129.391 64.875 129.392Z" fill="url(#paint5_linear_801_517)"/>
<path d="M90.173 62.636C86.213 42.761 78.586 19.061 64.732 19.061H64.595C53.525 19.19 45.04 33.87 39.373 62.695L39.361 62.757L37.777 71.771C37.136 75.848 36.566 80.08 36.077 84.387C35.9797 85.2437 35.8853 86.107 35.794 86.977C35.188 92.755 34.711 98.823 34.371 105.053C32.656 103.73 31.0264 102.3 29.492 100.771C22.2206 93.509 17.3429 84.1977 15.5128 74.0853C13.6827 63.9729 14.9876 53.5427 19.2527 44.1929C23.5177 34.843 30.539 27.0204 39.3753 21.7736C48.2116 16.5268 58.4407 14.1067 68.6914 14.8375C78.942 15.5683 88.7243 19.4152 96.7269 25.8625C104.73 32.3099 110.57 41.0494 113.465 50.9098C116.361 60.7701 116.173 71.28 112.927 81.0304C109.68 90.7809 103.531 99.306 95.303 105.463C94.947 99.073 94.444 92.842 93.803 86.904C93.709 86.0373 93.6126 85.174 93.514 84.314C93.014 80.014 92.438 75.781 91.786 71.714L90.173 62.636Z" fill="url(#paint6_linear_801_517)"/>
<path d="M65.051 -3.28983e-05C50.6612 0.0387465 36.6888 4.83967 25.3142 13.6536C13.9395 22.4676 5.80228 34.7988 2.17214 48.7233C-1.45799 62.6478 -0.376854 77.3823 5.24688 90.6278C10.8706 103.873 20.7206 114.885 33.26 121.944C33.3933 119.231 33.5413 116.548 33.704 113.897C26.1198 108.996 19.7773 102.401 15.176 94.631C9.97598 85.8208 7.19823 75.7922 7.12451 65.5621C7.05079 55.3321 9.68372 45.2645 14.7563 36.3803C19.8288 27.4961 27.1605 20.1114 36.0079 14.9749C44.8553 9.8385 54.9037 7.13312 65.134 7.13312C75.3643 7.13312 85.4127 9.8385 94.2601 14.9749C103.107 20.1114 110.439 27.4961 115.512 36.3803C120.584 45.2645 123.217 55.3321 123.143 65.5621C123.07 75.7922 120.292 85.8208 115.092 94.631C110.37 102.605 103.816 109.338 95.972 114.274C96.1347 116.912 96.285 119.576 96.423 122.267C109.114 115.314 119.129 104.333 124.887 91.0573C130.645 77.7811 131.819 62.9656 128.222 48.9486C124.626 34.9316 116.464 22.5112 105.025 13.6475C93.5867 4.78372 79.5221 -0.0187295 65.051 -0.0020318V-3.28983e-05Z" fill="url(#paint7_linear_801_517)"/>
</g>
<defs>
<linearGradient id="paint0_linear_801_517" x1="64.795" y1="189.823" x2="64.795" y2="61.8022" gradientUnits="userSpaceOnUse">
<stop stop-color="#1153FC"/>
<stop offset="1" stop-color="#5581F1"/>
</linearGradient>
<linearGradient id="paint1_linear_801_517" x1="65.275" y1="189.846" x2="65.275" y2="61.8189" gradientUnits="userSpaceOnUse">
<stop stop-color="#1153FC"/>
<stop offset="1" stop-color="#5581F1"/>
</linearGradient>
<linearGradient id="paint2_linear_801_517" x1="65.2755" y1="189.872" x2="65.2755" y2="61.8534" gradientUnits="userSpaceOnUse">
<stop stop-color="#1153FC"/>
<stop offset="1" stop-color="#5581F1"/>
</linearGradient>
<linearGradient id="paint3_linear_801_517" x1="64.8529" y1="189.836" x2="64.8529" y2="61.8083" gradientUnits="userSpaceOnUse">
<stop stop-color="#1153FC"/>
<stop offset="1" stop-color="#5581F1"/>
</linearGradient>
<linearGradient id="paint4_linear_801_517" x1="64.8786" y1="189.837" x2="64.8786" y2="61.8143" gradientUnits="userSpaceOnUse">
<stop stop-color="#1153FC"/>
<stop offset="1" stop-color="#5581F1"/>
</linearGradient>
<linearGradient id="paint5_linear_801_517" x1="64.9151" y1="189.841" x2="64.9151" y2="61.8134" gradientUnits="userSpaceOnUse">
<stop stop-color="#1153FC"/>
<stop offset="1" stop-color="#5581F1"/>
</linearGradient>
<linearGradient id="paint6_linear_801_517" x1="65.1072" y1="189.773" x2="65.1072" y2="61.8107" gradientUnits="userSpaceOnUse">
<stop stop-color="#1153FC"/>
<stop offset="1" stop-color="#5581F1"/>
</linearGradient>
<linearGradient id="paint7_linear_801_517" x1="65.1654" y1="189.882" x2="65.1654" y2="61.8661" gradientUnits="userSpaceOnUse">
<stop stop-color="#1153FC"/>
<stop offset="1" stop-color="#5581F1"/>
</linearGradient>
</defs>
</svg>
